HIERARCHY
ROOT hip
{
	OFFSET 0.000000 0.000000 0.000000 
	CHANNELS 6 Xposition Yposition Zposition Xrotation Zrotation Yrotation
	JOINT abdomen
	{
		OFFSET 0.000000 3.402643 0.000000 
		CHANNELS 3 Xrotation Zrotation Yrotation
		JOINT chest
		{
			OFFSET 0.000000 8.438565 -0.680529 
			CHANNELS 3 Xrotation Zrotation Yrotation
			JOINT neck
			{
				OFFSET 0.000000 10.207942 -0.272212 
				CHANNELS 3 Xrotation Zrotation Yrotation
				JOINT head
				{
					OFFSET 0.000000 3.130431 0.000000 
					CHANNELS 3 Xrotation Zrotation Yrotation
					End Site
					{
						OFFSET 0.000000 3.130435 0.000000 
					}
				}
			}
			JOINT lCollar
			{
				OFFSET 3.470700 6.669187 -0.816635 
				CHANNELS 3 Yrotation Zrotation Xrotation
				JOINT lShldr
				{
					OFFSET 3.198488 0.000000 0.000000 
					CHANNELS 3 Zrotation Yrotation Xrotation
					JOINT lForeArm
					{
						OFFSET 10.139888 0.000000 0.000000 
						CHANNELS 3 Yrotation Zrotation Xrotation
						JOINT lHand
						{
							OFFSET 8.370511 0.000000 0.000000 
							CHANNELS 3 Zrotation Yrotation Xrotation
							End Site
							{
								OFFSET 4.083176 0.000000 0.000000 
							}
						}
					}
				}
			}
			JOINT rCollar
			{
				OFFSET -3.470700 6.669187 -0.816635 
				CHANNELS 3 Yrotation Zrotation Xrotation
				JOINT rShldr
				{
					OFFSET -3.198488 0.000000 0.000000 
					CHANNELS 3 Zrotation Yrotation Xrotation
					JOINT rForeArm
					{
						OFFSET -10.139888 0.000000 0.000000 
						CHANNELS 3 Yrotation Zrotation Xrotation
						JOINT rHand
						{
							OFFSET -8.370511 0.000000 0.000000 
							CHANNELS 3 Zrotation Yrotation Xrotation
							End Site
							{
								OFFSET -4.083176 0.000000 0.000000 
							}
						}
					}
				}
			}
		}
	}
	JOINT lThigh
	{
		OFFSET 5.308129 -1.633274 1.361059 
		CHANNELS 3 Xrotation Zrotation Yrotation
		JOINT lShin
		{
			OFFSET -2.041588 -20.007561 0.000000 
			CHANNELS 3 Xrotation Zrotation Yrotation
			JOINT lFoot
			{
				OFFSET 0.000000 -19.190928 -1.224953 
				CHANNELS 3 Xrotation Yrotation Zrotation
				End Site
				{
					OFFSET 0.000000 -2.449906 4.627600 
				}
			}
		}
	}
	JOINT rThigh
	{
		OFFSET -5.308129 -1.633274 1.361059 
		CHANNELS 3 Xrotation Zrotation Yrotation
		JOINT rShin
		{
			OFFSET 2.041588 -20.007561 0.000000 
			CHANNELS 3 Xrotation Zrotation Yrotation
			JOINT rFoot
			{
				OFFSET 0.000000 -19.190928 -1.224953 
				CHANNELS 3 Xrotation Yrotation Zrotation
				End Site
				{
					OFFSET 0.000000 -2.449906 4.627600 
				}
			}
		}
	}
}
MOTION
Frames: 13
Frame Time: 0.033333
0.273277 49.465038 3.917539 1.132647 -4.470862 -1.626056 0.000000 0.000000 0.000000 7.373229 0.950963 6.456130 21.135494 11.063586 0.727751 -16.984825 -1.612818 -5.793386 -0.259826 13.579289 24.731813 -87.242722 -4.073184 -3.129525 -55.267712 -7.459589 98.150101 -26.943378 -11.637302 -50.249130 -19.853428 2.338812 24.994839 56.616684 6.412709 63.159332 37.022617 -39.710342 24.863682 39.230450 -2.349428 -82.266487 9.002028 -4.119400 15.637036 15.570932 8.082599 1.606216 17.438299 -10.844545 4.081980 -0.108010 -7.532022 -1.094237 46.613811 -6.181663 1.903964 13.893692 14.257783 1.270196 
0.069608 49.489014 3.872839 1.465018 -5.591200 -2.306833 0.000000 0.000000 0.000000 7.223217 1.891404 6.673684 21.046326 10.634001 0.697082 -17.121847 -1.244747 -5.255208 0.913221 13.565033 24.402367 -86.990013 -3.759557 -3.268669 -55.525902 -7.781993 97.943291 -27.022884 -12.407413 -49.857243 -18.994253 2.223357 24.991413 56.665150 6.210257 63.208122 37.369457 -39.776733 24.931091 39.960175 -2.968814 -82.412247 8.622108 -2.479473 16.162048 15.858825 7.671674 1.525684 17.388832 -10.695853 3.912289 -0.995328 -5.814336 -0.563116 47.609100 -3.397681 2.608629 13.969839 7.277774 4.709042 
-0.044520 49.510380 3.860261 1.643775 -6.165699 -2.574201 0.000000 0.000000 0.000000 7.095753 2.424238 6.803155 21.028214 10.243444 0.676054 -17.148144 -1.011790 -4.981414 1.626150 13.421421 24.217155 -86.874336 -3.367793 -3.343318 -55.875130 -7.721229 97.705818 -27.204077 -13.119034 -49.469456 -18.537720 2.106119 24.991169 56.507580 6.124127 63.128910 37.555824 -39.164921 23.832390 40.132809 -4.317097 -82.514709 8.047391 -1.675420 16.442465 16.610165 7.798206 1.495682 17.110716 -10.739897 3.693557 -1.698359 -4.988925 -0.311774 48.439552 -0.222001 3.402617 13.799298 0.124113 7.289960 
-0.092841 49.539124 3.888223 1.623964 -6.448762 -2.546187 0.000000 0.000000 0.000000 7.089590 2.753536 6.873221 21.038544 9.901730 0.645461 -17.088482 -0.934125 -4.864066 1.787733 13.169595 24.177279 -86.904770 -2.989197 -3.320488 -56.183380 -7.292284 97.519073 -27.382599 -13.734648 -49.103104 -18.352484 2.058203 24.991016 56.215572 5.954737 62.994240 37.604050 -38.507721 22.531063 39.837151 -5.428555 -82.523529 7.616195 -1.269192 16.581440 17.508530 7.977203 1.488991 16.720718 -10.922098 3.612203 -1.854597 -4.646961 -0.221577 48.691177 2.043418 3.940450 14.315316 -3.166012 13.763369 
-0.095795 49.575336 3.956533 1.346829 -6.576408 -2.379038 0.000000 0.000000 0.000000 7.237920 2.985857 6.933712 21.220739 9.755274 0.635819 -17.120483 -1.186675 -5.108549 1.548194 12.829789 24.251358 -86.876221 -2.751878 -3.338507 -56.167191 -6.907606 97.316658 -27.481695 -14.033247 -48.935261 -18.431221 2.037215 24.999018 55.818439 5.838966 62.773830 37.601501 -37.830997 21.598003 39.223705 -6.024177 -82.449944 7.822954 -1.266313 16.595974 17.675198 8.299672 1.519401 16.579247 -11.119224 3.416878 -1.239183 -4.537307 -0.186813 48.144432 2.033689 3.900335 15.734376 -0.817710 19.743446 
-0.030338 49.608356 4.060425 1.018854 -6.490160 -2.015610 0.000000 0.000000 0.000000 7.345771 3.140835 6.954280 21.501184 9.657640 0.624536 -17.161732 -1.652188 -5.617679 0.749279 12.384371 24.469212 -86.954865 -2.503914 -3.301769 -56.026779 -6.251437 97.156624 -27.414738 -14.175570 -48.907406 -18.946896 2.026913 24.991953 55.249702 5.770728 62.449348 37.725666 -37.145664 21.165596 38.321972 -6.464969 -82.330757 8.504723 -1.825657 16.375877 17.070395 8.885852 1.714638 16.664343 -11.434836 3.155825 -0.185069 -4.685541 -0.270200 47.098637 0.246774 3.404125 17.289057 4.993875 24.028351 
0.160784 49.672699 4.229393 -0.042384 -5.584971 -1.069854 0.000000 0.000000 0.000000 8.035360 2.531006 6.784071 21.911089 10.048186 0.655091 -17.165781 -2.376659 -6.617360 -0.679674 11.702591 24.832329 -86.964706 -2.456233 -3.289005 -55.697613 -5.453477 97.013763 -27.131065 -14.244522 -48.992611 -19.954916 2.252905 24.993872 54.284168 5.697225 61.911335 37.909618 -36.453270 20.828840 37.419334 -6.752022 -82.203667 10.189036 -3.677578 15.747849 15.810930 9.881917 2.010908 16.925426 -11.966501 3.091710 1.990552 -6.051580 -0.686837 45.685204 -2.197621 2.701659 18.162140 12.187970 24.276834 
0.418386 49.766811 4.408165 -1.562500 -3.867188 -0.000659 0.000000 0.000000 0.000000 9.274811 1.106308 6.417266 22.345879 10.692591 0.697091 -17.203604 -3.038413 -7.755446 -2.069853 10.866447 24.988461 -86.672211 -2.528391 -3.453421 -55.382362 -5.012673 97.124557 -26.764481 -14.136254 -49.184086 -21.048641 2.663592 24.993713 53.412708 5.728769 61.402054 37.616711 -36.291035 20.605453 36.952198 -6.398552 -82.147453 12.749761 -6.441615 14.729257 13.975367 10.848791 2.366436 17.485521 -12.466703 3.252328 4.881593 -8.388283 -1.494917 44.272125 -4.727133 1.996332 17.205086 17.938219 17.593281 
0.631342 49.829727 4.472579 -2.440703 -2.177547 0.752152 0.000000 0.000000 0.000000 10.129964 -0.339890 6.054755 22.479668 11.249069 0.746926 -17.181213 -3.407276 -8.746257 -3.145928 10.374566 24.997005 -86.408325 -2.798155 -3.590570 -55.133961 -5.111334 97.628281 -26.172188 -13.710047 -49.544563 -21.945946 2.930589 24.994287 53.239563 5.958063 61.277542 36.259151 -36.951797 20.320395 36.986370 -4.372700 -82.109673 14.324416 -8.865343 13.912049 12.705418 11.492634 2.599813 17.999128 -12.748796 3.707303 6.727785 -10.634059 -2.234077 43.296669 -6.465740 1.509997 14.642770 20.385485 5.577893 
0.770658 49.861168 4.452770 -2.777675 -0.995810 1.367320 0.000000 0.000000 0.000000 10.660598 -1.379616 5.802386 22.273779 11.620080 0.768013 -17.124809 -3.612723 -9.433336 -4.037107 10.235159 24.992310 -86.251152 -3.164579 -3.681528 -54.897285 -5.494937 97.758385 -25.512890 -12.924794 -50.144543 -22.534983 3.048759 24.994085 53.264698 6.034833 61.275253 35.163574 -37.691631 19.539869 37.142513 -2.836755 -82.078011 14.948665 -10.475677 13.416237 12.173270 11.878940 2.727612 18.363251 -12.935478 4.246448 7.614027 -12.202746 -2.751569 42.530136 -7.509960 1.207196 12.898164 21.581879 -3.067056 
0.747297 49.830738 4.336123 -2.282824 -1.054343 1.464955 0.000000 0.000000 0.000000 10.468779 -1.340707 5.821683 21.846504 11.649347 0.779550 -17.006662 -3.544885 -9.471705 -4.200412 10.547812 24.989721 -86.396057 -3.482236 -3.595555 -54.864746 -5.884119 97.867317 -25.196009 -12.266549 -50.555023 -22.426390 2.883823 24.994890 53.556774 5.987946 61.450516 34.601334 -38.255112 18.896059 37.728230 -1.896896 -82.100044 14.069813 -10.338877 13.512834 12.568927 11.863745 2.714294 18.413555 -12.899643 4.594348 6.559148 -11.996054 -2.686780 43.323215 -6.931244 1.430340 14.539900 20.876829 3.773248 
0.594223 49.722538 4.114275 -0.565042 -2.255545 0.957443 0.000000 0.000000 0.000000 9.095052 -0.242748 6.123075 21.329531 11.268574 0.758411 -16.696302 -2.980522 -8.997002 -3.458414 11.177624 24.997826 -86.922081 -3.646821 -3.296633 -55.099068 -6.053132 97.972885 -25.066448 -11.874337 -50.791424 -21.478384 2.200172 24.997326 54.333424 5.822475 61.914402 34.396328 -38.792019 18.726368 38.603981 -1.540739 -82.182304 11.168091 -8.647531 14.182174 14.081353 11.530932 2.522554 18.062654 -12.511298 4.553227 3.083876 -10.188909 -2.021614 46.100807 -3.875590 2.401606 14.468363 12.058991 11.408987 
0.395651 49.658485 3.984091 0.438837 -3.574207 -0.146808 0.000000 0.000000 0.000000 8.325089 0.912236 6.407144 21.328926 10.585176 0.697075 -16.562820 -2.303170 -7.721132 -1.984323 11.334966 24.996479 -87.010796 -3.389573 -3.257771 -55.556316 -6.135080 97.985016 -25.159025 -11.775266 -50.833149 -20.054733 1.670058 24.991903 55.068588 5.626569 62.374676 34.538326 -39.487446 19.901861 39.401707 -1.248125 -82.250481 9.176815 -6.461553 14.939434 15.810261 10.730679 2.211198 17.336933 -11.879510 4.019500 0.731800 -8.044969 -1.283458 47.666878 -1.319118 3.074604 14.176511 4.711084 16.599466 
